<mxfile host="app.diagrams.net" modified="2021-04-09T08:20:04.726Z" agent="5.0 (Windows NT 10.0; WOW64) AppleWebKit/537.36 (KHTML, like Gecko) Chrome/89.0.4389.114 Safari/537.36" etag="JF2nqZC7QNIF9ISE1oJq" version="14.5.3" type="github">
  <diagram id="3bJnsViPIGDo59fvc9Oa" name="Page-1">
    <mxGraphModel dx="782" dy="469" grid="1" gridSize="10" guides="1" tooltips="1" connect="1" arrows="1" fold="1" page="1" pageScale="1" pageWidth="827" pageHeight="1169" math="0" shadow="0">
      <root>
        <mxCell id="0" />
        <mxCell id="1" parent="0" />
        <mxCell id="0guEnuHzR9NDdwFoMG1p-6" value="Header： app=A&amp;nbsp;" style="edgeStyle=orthogonalEdgeStyle;rounded=0;orthogonalLoop=1;jettySize=auto;html=1;exitX=0.5;exitY=1;exitDx=0;exitDy=0;entryX=0;entryY=0.5;entryDx=0;entryDy=0;" edge="1" parent="1" source="0guEnuHzR9NDdwFoMG1p-2" target="0guEnuHzR9NDdwFoMG1p-5">
          <mxGeometry relative="1" as="geometry" />
        </mxCell>
        <mxCell id="0guEnuHzR9NDdwFoMG1p-2" value="应用A" style="rounded=0;whiteSpace=wrap;html=1;fillColor=#f5f5f5;strokeColor=#666666;fontColor=#333333;" vertex="1" parent="1">
          <mxGeometry x="240" y="186" width="100" height="30" as="geometry" />
        </mxCell>
        <mxCell id="0guEnuHzR9NDdwFoMG1p-7" value="Header： app=C" style="edgeStyle=orthogonalEdgeStyle;rounded=0;orthogonalLoop=1;jettySize=auto;html=1;exitX=0.5;exitY=1;exitDx=0;exitDy=0;entryX=1;entryY=0.5;entryDx=0;entryDy=0;" edge="1" parent="1" source="0guEnuHzR9NDdwFoMG1p-3" target="0guEnuHzR9NDdwFoMG1p-5">
          <mxGeometry relative="1" as="geometry" />
        </mxCell>
        <mxCell id="0guEnuHzR9NDdwFoMG1p-3" value="应用C" style="rounded=0;whiteSpace=wrap;html=1;fillColor=#f5f5f5;strokeColor=#666666;fontColor=#333333;" vertex="1" parent="1">
          <mxGeometry x="520" y="186" width="100" height="30" as="geometry" />
        </mxCell>
        <mxCell id="0guEnuHzR9NDdwFoMG1p-8" value="Header： app=B" style="edgeStyle=orthogonalEdgeStyle;rounded=0;orthogonalLoop=1;jettySize=auto;html=1;exitX=0.5;exitY=1;exitDx=0;exitDy=0;entryX=0.5;entryY=0;entryDx=0;entryDy=0;" edge="1" parent="1" source="0guEnuHzR9NDdwFoMG1p-4" target="0guEnuHzR9NDdwFoMG1p-5">
          <mxGeometry relative="1" as="geometry" />
        </mxCell>
        <mxCell id="0guEnuHzR9NDdwFoMG1p-4" value="应用B" style="rounded=0;whiteSpace=wrap;html=1;fillColor=#f5f5f5;strokeColor=#666666;fontColor=#333333;" vertex="1" parent="1">
          <mxGeometry x="380" y="186" width="100" height="30" as="geometry" />
        </mxCell>
        <mxCell id="0guEnuHzR9NDdwFoMG1p-10" style="rounded=0;orthogonalLoop=1;jettySize=auto;html=1;exitX=0.5;exitY=1;exitDx=0;exitDy=0;entryX=0.5;entryY=0;entryDx=0;entryDy=0;" edge="1" parent="1" source="0guEnuHzR9NDdwFoMG1p-16" target="0guEnuHzR9NDdwFoMG1p-9">
          <mxGeometry relative="1" as="geometry" />
        </mxCell>
        <mxCell id="0guEnuHzR9NDdwFoMG1p-15" style="rounded=0;orthogonalLoop=1;jettySize=auto;html=1;exitX=0.5;exitY=1;exitDx=0;exitDy=0;" edge="1" parent="1" source="0guEnuHzR9NDdwFoMG1p-16" target="0guEnuHzR9NDdwFoMG1p-11">
          <mxGeometry relative="1" as="geometry" />
        </mxCell>
        <mxCell id="0guEnuHzR9NDdwFoMG1p-21" style="edgeStyle=none;rounded=0;orthogonalLoop=1;jettySize=auto;html=1;exitX=0.5;exitY=1;exitDx=0;exitDy=0;entryX=0.5;entryY=0;entryDx=0;entryDy=0;" edge="1" parent="1" source="0guEnuHzR9NDdwFoMG1p-5" target="0guEnuHzR9NDdwFoMG1p-16">
          <mxGeometry relative="1" as="geometry" />
        </mxCell>
        <mxCell id="0guEnuHzR9NDdwFoMG1p-5" value="网关（traefik）" style="rounded=1;whiteSpace=wrap;html=1;fillColor=#e1d5e7;strokeColor=#9673a6;" vertex="1" parent="1">
          <mxGeometry x="370" y="280" width="120" height="60" as="geometry" />
        </mxCell>
        <mxCell id="0guEnuHzR9NDdwFoMG1p-9" value="服务a1（namespace1）" style="rounded=0;whiteSpace=wrap;html=1;fillColor=#d5e8d4;strokeColor=#82b366;" vertex="1" parent="1">
          <mxGeometry x="240" y="499" width="100" height="30" as="geometry" />
        </mxCell>
        <mxCell id="0guEnuHzR9NDdwFoMG1p-11" value="服务a3（namespace3）" style="rounded=0;whiteSpace=wrap;html=1;fillColor=#d5e8d4;strokeColor=#82b366;" vertex="1" parent="1">
          <mxGeometry x="520" y="499" width="100" height="30" as="geometry" />
        </mxCell>
        <mxCell id="0guEnuHzR9NDdwFoMG1p-12" value="服务a2（namespace2）" style="rounded=0;whiteSpace=wrap;html=1;fillColor=#d5e8d4;strokeColor=#82b366;" vertex="1" parent="1">
          <mxGeometry x="380" y="499" width="100" height="30" as="geometry" />
        </mxCell>
        <mxCell id="0guEnuHzR9NDdwFoMG1p-23" style="edgeStyle=none;rounded=0;orthogonalLoop=1;jettySize=auto;html=1;exitX=0.5;exitY=1;exitDx=0;exitDy=0;entryX=0.5;entryY=0;entryDx=0;entryDy=0;" edge="1" parent="1" source="0guEnuHzR9NDdwFoMG1p-16" target="0guEnuHzR9NDdwFoMG1p-12">
          <mxGeometry relative="1" as="geometry" />
        </mxCell>
        <mxCell id="0guEnuHzR9NDdwFoMG1p-16" value="服务路由（IngressRoute）" style="rhombus;whiteSpace=wrap;html=1;fontFamily=Helvetica;fontSize=12;align=center;strokeColor=#b85450;fillColor=#f8cecc;" vertex="1" parent="1">
          <mxGeometry x="390" y="374" width="80" height="70" as="geometry" />
        </mxCell>
      </root>
    </mxGraphModel>
  </diagram>
</mxfile>
